<?xml version="1.0" standalone="no"?>
<!DOCTYPE svg PUBLIC "-//W3C//DTD SVG 20010904//EN"
 "http://www.w3.org/TR/2001/REC-SVG-20010904/DTD/svg10.dtd">
<svg version="1.0" xmlns="http://www.w3.org/2000/svg"
 width="45.000000pt" height="45.000000pt" viewBox="0 0 45.000000 45.000000"
 preserveAspectRatio="xMidYMid meet">

<g transform="translate(0.000000,45.000000) scale(0.100000,-0.100000)"
fill="#000000" stroke="none">
<path d="M0 255 c0 -179 5 -217 25 -185 3 6 15 10 25 10 12 0 20 8 22 23 3 19
10 22 49 25 37 2 48 7 52 23 4 15 14 19 51 19 39 0 46 -3 46 -20 0 -17 7 -20
50 -20 47 0 50 -2 50 -25 0 -20 5 -25 24 -25 14 0 28 -4 31 -10 20 -32 25 6
25 185 l0 195 -55 0 c-42 0 -55 -3 -55 -15 0 -12 -19 -15 -115 -15 -96 0 -115
3 -115 15 0 12 -13 15 -55 15 l-55 0 0 -195z"/>
<path d="M60 10 c0 -6 62 -10 165 -10 103 0 165 4 165 10 0 6 -62 10 -165 10
-103 0 -165 -4 -165 -10z"/>
</g>
</svg>
